<?xml version="1.0" encoding="utf-8"?>
<!-- Generator: Adobe Illustrator 25.3.1, SVG Export Plug-In . SVG Version: 6.00 Build 0)  -->
<svg version="1.1" xmlns="http://www.w3.org/2000/svg" xmlns:xlink="http://www.w3.org/1999/xlink" x="0px" y="0px"
	 viewBox="0 0 300 300" style="enable-background:new 0 0 300 300;" xml:space="preserve">
<style type="text/css">
	.st0{display:none;}
	.st1{fill:#CD5227;}
	.st2{fill:#713516;}
	.st3{fill:#F9C68C;}
	.st4{fill:#DC4647;}
	.st5{fill:#EF5353;}
	.st6{fill:#F3712A;}
</style>
<g id="Layer_1" class="st0">
</g>
<g id="Layer_2">
	<g id="XMLID_687_">
		<g id="XMLID_681_">
			<polygon id="XMLID_1099_" class="st1" points="60.4,181.6 60.4,241.2 250.5,241.2 250.5,182.6 			"/>
		</g>
		<g id="XMLID_686_">
			<path id="XMLID_1101_" class="st2" d="M250.5,243.1H60.4c-1.1,0-2.1-0.9-2.1-1.9v-59.6h4.1v57.7h186v-56.6h4.1v58.6
				C252.5,242.2,251.6,243.1,250.5,243.1z"/>
		</g>
		<g id="XMLID_682_">
			<g id="XMLID_822_">
				<path id="XMLID_1228_" class="st3" d="M250.8,146.4c0,0,13.1-6.4,14,10.2c0.9,16.5-13.1,30.6-28.7,29.3"/>
			</g>
			<g id="XMLID_821_">
				<path id="XMLID_1100_" class="st2" d="M238.2,187.8c-0.7,0-1.5,0-2.2-0.1l0.4-3.8c6.3,0.5,12.5-1.7,17.6-6.2
					c6-5.3,9.3-13.2,8.8-21.1c-0.2-3.2-1-7.4-3.8-8.9c-3-1.6-7.2,0.3-7.2,0.4l-1.9-3.4c0.2-0.1,6.2-2.9,11.2-0.3
					c3.6,1.9,5.5,6,5.9,12.1c0.5,9.1-3.2,17.9-10.1,24.1C251.4,185.3,244.9,187.8,238.2,187.8z"/>
			</g>
			<g id="XMLID_793_">
				<path id="XMLID_1085_" class="st4" d="M80.1,299.2h152.4v0c0-28.1-24.5-50.9-54.7-50.9h-43C104.6,248.3,80.1,271.1,80.1,299.2
					L80.1,299.2z"/>
			</g>
			<g id="XMLID_792_">
				<path id="XMLID_1096_" class="st2" d="M234.6,301.1H78v-1.9c0-29.1,25.5-52.8,56.8-52.8h43c31.3,0,56.8,23.7,56.8,52.8V301.1z
					 M82.2,297.3h148.2c-1.1-26.1-24.3-47.1-52.6-47.1h-43C106.5,250.2,83.3,271.2,82.2,297.3z"/>
			</g>
			<g id="XMLID_778_">
				<path id="XMLID_1227_" class="st3" d="M138.9,247.1v-22h34.8v22C173.7,267.6,138.9,267.6,138.9,247.1z"/>
			</g>
			<g id="XMLID_770_">
				<path id="XMLID_1093_" class="st2" d="M156.3,264.4c-9.7,0-19.4-6-19.4-17.3v-23.9h38.9v23.9C175.7,258.4,166,264.4,156.3,264.4
					z M141,227v20.1c0,9.3,8,13.5,15.3,13.5c7.4,0,15.3-4.2,15.3-13.5V227H141z"/>
			</g>
			<g id="XMLID_757_">
				<path id="XMLID_1226_" class="st3" d="M61.8,146.4c0,0-13.1-6.4-14,10.2c-0.9,16.5,13.1,30.6,28.7,29.3"/>
			</g>
			<g id="XMLID_714_">
				<path id="XMLID_1225_" class="st3" d="M61.8,134.5c0,48.5,42.3,103.1,94.5,103.1s94.5-54.6,94.5-103.1s-42.3-72.4-94.5-72.4
					S61.8,86,61.8,134.5z"/>
			</g>
			<g id="XMLID_713_">
				<path id="XMLID_1090_" class="st2" d="M156.3,239.5c-54.4,0-96.5-56.4-96.5-105c0-23.4,9.8-42.8,28.5-55.9
					c17.1-12.1,40.6-18.4,68-18.4c27.4,0,50.9,6.4,68,18.4c18.6,13.1,28.5,32.5,28.5,55.9C252.8,183,210.7,239.5,156.3,239.5z
					 M156.3,64c-44.7,0-92.4,18.5-92.4,70.5c0,23.3,10.2,48.9,27.2,68.5c18.3,21.1,41.4,32.7,65.2,32.7c23.8,0,46.9-11.6,65.2-32.7
					c17-19.7,27.2-45.3,27.2-68.5C248.7,82.5,201,64,156.3,64z"/>
			</g>
			<g id="XMLID_710_">
				<path id="XMLID_1089_" class="st2" d="M74.4,187.8c-6.7,0-13.2-2.6-18.6-7.3c-6.9-6.2-10.6-15-10.1-24.1
					c0.3-6.1,2.3-10.2,5.9-12.1c5-2.6,10.9,0.2,11.2,0.3l-1.9,3.4c0,0-4.2-2-7.2-0.3c-2.8,1.5-3.6,5.7-3.8,8.9
					c-0.4,7.9,2.9,15.8,8.8,21.1c5,4.5,11.3,6.7,17.6,6.2l0.4,3.8C75.9,187.8,75.1,187.8,74.4,187.8z"/>
			</g>
			<g id="XMLID_702_">
				<g id="XMLID_709_">
					<ellipse id="XMLID_1224_" class="st2" cx="191.5" cy="152.4" rx="6.8" ry="6.4"/>
				</g>
				<g id="XMLID_705_">
					<ellipse id="XMLID_1223_" class="st2" cx="121.1" cy="152.4" rx="6.8" ry="6.4"/>
				</g>
			</g>
			<g id="XMLID_699_">
				<g id="XMLID_701_">
					<path id="XMLID_1222_" class="st2" d="M184.7,193.7h-56.8c0,0,4.6,22.6,28.4,22.7C179.3,216.4,184.7,193.7,184.7,193.7z"/>
				</g>
				<g id="XMLID_700_">
					<path id="XMLID_1221_" class="st5" d="M174.9,209.6c0,0-7-7.6-20.7-6.9c-13.7,0.7-17.9,5.9-17.9,5.9s4.3,8.6,18.3,7.7
						C168.5,215.4,174.9,209.6,174.9,209.6z"/>
				</g>
			</g>
			<g id="XMLID_696_">
				<path id="XMLID_1086_" class="st2" d="M156.4,218.2c-0.1,0-0.1,0-0.1,0c-25.2-0.1-30.4-24-30.4-24.2c-0.1-0.6,0-1.1,0.4-1.6
					c0.4-0.4,1-0.7,1.6-0.7h56.8c0.6,0,1.2,0.3,1.6,0.7c0.4,0.5,0.5,1,0.4,1.6C186.6,194.3,180.6,218.2,156.4,218.2z M130.6,195.6
					c1.8,5.5,8.1,18.8,25.8,18.9c0,0,0.1,0,0.1,0c16.7,0,23.4-13.4,25.5-18.9H130.6z"/>
			</g>
			<g id="XMLID_688_">
				<ellipse id="XMLID_1220_" class="st5" cx="156.3" cy="171.8" rx="3.1" ry="2.9"/>
			</g>
			<g id="XMLID_683_">
				<g id="XMLID_685_">
					<path id="XMLID_868_" class="st6" d="M52.6,146V87.7c0-35.6,24.9-67.5,61.7-77.4c0.9-0.2,1.7-0.5,2.6-0.7
						C166.2-2.1,197,22,202.5,36c0,0,0.6-0.1,1.7-0.2c28.3-3,53.1,17.8,53.1,44.3v62.5v2.7c-9.1,4.7-10.4,15.7-10.4,15.7
						s3.7-21-6.7-46c-10.5-25.1-49.6-36-49.6-36c-12,26.5-41.9,60-116.6,57.6l-7.7-0.3l0.5,28.1C66.8,164.2,63.9,147.3,52.6,146z"/>
				</g>
				<g id="XMLID_684_">
					<path id="XMLID_1082_" class="st2" d="M66.8,166.2c-1,0-1.9-0.7-2-1.6c0-0.2-2.7-15.5-12.4-16.6c-1-0.1-1.8-0.9-1.8-1.9V87.7
						c0-36.7,26-69.3,63.2-79.2c0.9-0.2,1.8-0.5,2.7-0.7c48.4-11.6,79.9,10.6,87.3,26.1c0,0,0.1,0,0.1,0c14-1.5,28,2.7,38.6,11.4
						c10.6,8.8,16.7,21.5,16.7,34.7v65.2c0,0.7-0.4,1.3-1,1.7c-7,3.7-8.9,11.8-9.3,13.8c0,0.3-0.1,0.5-0.1,0.6
						c-0.2,1-1.2,1.7-2.3,1.6c-1.1-0.1-1.9-1.1-1.8-2.1c0-0.1,0-0.3,0.1-0.6c0.5-3.2,2.6-22.4-6.7-44.6c-8.8-21-38.9-31.9-46.5-34.3
						c-12.7,26.8-42.2,57.3-110.3,57.3c-2.4,0-4.9,0-7.5-0.1l-5.5-0.2l0.4,26c0,1-0.8,1.8-1.9,1.9C66.9,166.2,66.8,166.2,66.8,166.2
						z M54.7,144.5c4.5,1.1,7.7,4.4,9.8,8l-0.3-16.2c0-0.5,0.2-1,0.6-1.4c0.4-0.4,0.9-0.6,1.5-0.5l7.7,0.3
						c72.5,2.3,102.3-29.4,114.6-56.5c0.4-0.9,1.5-1.4,2.5-1.1c1.6,0.5,40.2,11.5,50.9,37.1c5.8,13.9,7.3,26.4,7.5,35.1
						c1.4-1.9,3.3-3.7,5.6-5.1V80.1c0-12.2-5.6-23.8-15.4-31.9c-9.7-8-22.6-11.8-35.4-10.5c-1,0.1-1.5,0.2-1.6,0.2
						c-1,0.2-1.9-0.4-2.3-1.2c-5.4-13.9-36.3-36.4-83.1-25.2c-0.9,0.2-1.7,0.4-2.5,0.6c-35.5,9.5-60.2,40.6-60.2,75.6V144.5z"/>
				</g>
			</g>
		</g>
	</g>
</g>
</svg>
