<?xml version="1.0" encoding="utf-8"?>
<!-- Generator: Adobe Illustrator 25.3.1, SVG Export Plug-In . SVG Version: 6.00 Build 0)  -->
<svg version="1.1" xmlns="http://www.w3.org/2000/svg" xmlns:xlink="http://www.w3.org/1999/xlink" x="0px" y="0px"
	 viewBox="0 0 300 300" style="enable-background:new 0 0 300 300;" xml:space="preserve">
<style type="text/css">
	.st0{display:none;}
	.st1{fill:#F9C68C;}
	.st2{fill:#713516;}
	.st3{fill:#6766AE;}
	.st4{fill:#EF5353;}
	.st5{fill:#3A2D24;}
</style>
<g id="Layer_1" class="st0">
</g>
<g id="Layer_2">
	<g id="XMLID_631_">
		<g id="XMLID_777_">
			<path id="XMLID_1247_" class="st1" d="M54.9,148.4c0,0-13.6-6.3-14.5,10.1c-0.9,16.4,13.5,30.4,29.6,29.1"/>
		</g>
		<g id="XMLID_776_">
			<path id="XMLID_1139_" class="st2" d="M67.9,189.6c-6.9,0-13.7-2.5-19.2-7.3c-7.1-6.1-10.9-14.8-10.4-23.9
				c0.3-6.1,2.4-10.1,6.1-12c5.2-2.6,11.3,0.2,11.5,0.3l-2,3.4c0,0-4.4-2-7.5-0.3c-2.9,1.5-3.8,5.6-3.9,8.9c-0.4,7.8,3,15.7,9.1,21
				c5.2,4.5,11.7,6.7,18.2,6.1l0.4,3.8C69.4,189.5,68.6,189.5,67.9,189.6z"/>
		</g>
		<g id="XMLID_641_">
			<path id="XMLID_1124_" class="st3" d="M231.2,300H73.7l0,0c0-27.9,25.3-50.5,56.6-50.5h44.4C205.9,249.5,231.2,272.1,231.2,300
				L231.2,300z"/>
		</g>
		<g id="XMLID_640_">
			<path id="XMLID_1135_" class="st2" d="M233.4,301.9H71.6V300c0-28.9,26.3-52.4,58.7-52.4h44.4c32.4,0,58.7,23.5,58.7,52.4V301.9z
				 M75.9,298.1h153.2c-1.1-25.9-25.1-46.7-54.4-46.7h-44.4C101,251.4,77,272.2,75.9,298.1z"/>
		</g>
		<g id="XMLID_639_">
			<path id="XMLID_1246_" class="st1" d="M170.5,248.3v-21.8h-35.9v21.8C134.5,268.7,170.5,268.7,170.5,248.3z"/>
		</g>
		<g id="XMLID_638_">
			<path id="XMLID_1132_" class="st2" d="M152.5,265.5c-10,0-20.1-5.9-20.1-17.2v-23.7h40.2v23.7
				C172.6,259.6,162.5,265.5,152.5,265.5z M136.6,228.4v19.9c0,9.2,8.2,13.4,15.9,13.4c7.6,0,15.9-4.2,15.9-13.4v-19.9H136.6z"/>
		</g>
		<g id="XMLID_637_">
			<path id="XMLID_1245_" class="st1" d="M250.1,148.4c0,0,13.6-6.3,14.5,10.1c0.9,16.4-13.5,30.4-29.6,29.1"/>
		</g>
		<g id="XMLID_636_">
			<path id="XMLID_1244_" class="st1" d="M250.1,136.6c0,48.1-43.7,102.2-97.6,102.2s-97.6-54.2-97.6-102.2s43.7-71.8,97.6-71.8
				S250.1,88.6,250.1,136.6z"/>
		</g>
		<g id="XMLID_635_">
			<path id="XMLID_1129_" class="st2" d="M152.5,240.8c-56.2,0-99.7-56-99.7-104.1c0-23.3,10.2-42.4,29.4-55.5
				c17.7-12,42-18.3,70.3-18.3s52.6,6.3,70.3,18.3c19.3,13,29.4,32.2,29.4,55.5C252.2,184.8,208.7,240.8,152.5,240.8z M152.5,66.7
				c-46.2,0-95.5,18.4-95.5,69.9c0,23.1,10.5,48.5,28.1,68c18.9,20.9,42.8,32.4,67.4,32.4c24.6,0,48.5-11.5,67.4-32.4
				c17.6-19.5,28.1-44.9,28.1-68C248,85.1,198.7,66.7,152.5,66.7z"/>
		</g>
		<g id="XMLID_634_">
			<path id="XMLID_1128_" class="st2" d="M237.1,189.6c-0.8,0-1.5,0-2.3-0.1l0.4-3.8c6.5,0.5,13-1.6,18.2-6.1
				c6.2-5.3,9.6-13.1,9.1-21c-0.2-3.2-1-7.4-4-8.9c-3.1-1.6-7.4,0.3-7.5,0.3l-2-3.4c0.3-0.1,6.4-2.9,11.5-0.3
				c3.7,1.9,5.7,5.9,6.1,12c0.5,9-3.3,17.7-10.4,23.9C250.8,187,244.1,189.5,237.1,189.6z"/>
		</g>
		<g id="XMLID_624_">
			<g id="XMLID_628_">
				<ellipse id="XMLID_1243_" class="st2" cx="116.1" cy="154.4" rx="7.1" ry="6.3"/>
			</g>
			<g id="XMLID_626_">
				<ellipse id="XMLID_1242_" class="st2" cx="188.9" cy="154.4" rx="7.1" ry="6.3"/>
			</g>
		</g>
		<g id="XMLID_621_">
			<g id="XMLID_623_">
				<path id="XMLID_1241_" class="st2" d="M123.1,195.3h58.7c0,0-4.8,22.4-29.3,22.5C128.8,217.9,123.1,195.3,123.1,195.3z"/>
			</g>
			<g id="XMLID_622_">
				<path id="XMLID_1240_" class="st4" d="M133.2,211.1c0,0,7.3-7.5,21.4-6.8c14.2,0.7,18.5,5.8,18.5,5.8s-4.5,8.5-18.9,7.7
					C139.9,216.9,133.2,211.1,133.2,211.1z"/>
			</g>
		</g>
		<g id="XMLID_620_">
			<path id="XMLID_1125_" class="st2" d="M152.3,219.7c-25,0-31.2-23.7-31.3-24c-0.1-0.6,0-1.1,0.4-1.6c0.4-0.4,1-0.7,1.7-0.7h58.7
				c0.6,0,1.2,0.3,1.6,0.7c0.4,0.4,0.6,1,0.5,1.6c-0.1,0.2-5.4,23.9-31.4,24C152.4,219.7,152.4,219.7,152.3,219.7z M126,197.2
				c2.1,5.5,8.9,18.7,26.4,18.7c0,0,0.1,0,0.1,0c18.1-0.1,24.7-13.3,26.6-18.7H126z"/>
		</g>
		<g id="XMLID_619_">
			<path id="XMLID_1239_" class="st4" d="M155.7,173.7c0,1.6-1.5,2.9-3.3,2.9c-1.8,0-3.3-1.3-3.3-2.9c0-1.6,1.5-2.9,3.3-2.9
				C154.3,170.8,155.7,172.1,155.7,173.7z"/>
		</g>
		<g id="XMLID_630_">
			<g id="XMLID_616_">
				<path id="XMLID_1119_" class="st5" d="M259.6,148.1V90.3c0-35.3-25.7-67-63.8-76.8c-0.9-0.2-1.8-0.4-2.7-0.7
					C142.2,1.1,110.4,25.1,104.8,39c0,0-0.6-0.1-1.7-0.2c-29.2-3-54.8,17.6-54.8,43.9v62v2.7c9.4,4.7,10.7,15.5,10.7,15.5
					s-3.9-20.8,6.9-45.7c10.8-24.9,51.2-35.7,51.2-35.7c12.4,26.3,43.3,59.5,120.4,57.2l7.9-0.3l-0.5,27.8
					C245,166.1,247.9,149.4,259.6,148.1z"/>
			</g>
			<g id="XMLID_617_">
				<path id="XMLID_1121_" class="st2" d="M245,168c-0.1,0-0.1,0-0.2,0c-1.1-0.1-2-0.9-1.9-1.9l0.4-25.8l-5.7,0.2
					c-2.6,0.1-5.2,0.1-7.7,0.1c-70.4,0-100.8-30.2-114-56.8c-7.8,2.4-39,13.2-48.1,34c-9.6,22-7.4,41-6.9,44.2
					c0.1,0.3,0.1,0.5,0.1,0.6c0.1,1-0.7,1.9-1.8,2.1c-1.1,0.1-2.2-0.6-2.4-1.6c0-0.1,0-0.3-0.1-0.6c-0.4-2-2.3-10-9.6-13.7
					c-0.7-0.3-1.1-1-1.1-1.6V82.7c0-13.1,6.3-25.7,17.3-34.5c10.9-8.7,25.4-12.8,39.9-11.3c0,0,0.1,0,0.1,0
					c7.7-15.4,40.3-37.4,90.2-25.9c0.9,0.2,1.8,0.4,2.8,0.7c38.4,9.9,65.3,42.2,65.3,78.6v57.8c0,1-0.8,1.8-1.9,1.9
					c-10,1.1-12.7,16.3-12.8,16.5C246.9,167.4,246,168,245,168z M245.5,136.4c0.5,0,1.1,0.2,1.5,0.5c0.4,0.4,0.7,0.9,0.6,1.4
					l-0.3,16.1c2.2-3.5,5.5-6.8,10.2-7.9V90.3c0-34.7-25.6-65.5-62.2-74.9c-0.9-0.2-1.7-0.4-2.6-0.6c-48.3-11.1-80.2,11.2-85.8,25
					c-0.4,0.9-1.4,1.4-2.4,1.2c0,0-0.6-0.1-1.6-0.2C89.5,39.3,76.2,43.1,66.2,51c-10.1,8-15.9,19.6-15.9,31.6v63.6
					c2.4,1.4,4.3,3.2,5.8,5.1c0.2-8.6,1.8-21,7.8-34.8c11.1-25.4,50.9-36.4,52.6-36.8c1-0.3,2.1,0.2,2.6,1.1
					c12.6,26.8,43.5,58.3,118.4,56l7.9-0.3C245.4,136.4,245.4,136.4,245.5,136.4z"/>
			</g>
		</g>
	</g>
</g>
</svg>
