<?xml version="1.0" encoding="utf-8"?>
<!-- Generator: Adobe Illustrator 25.3.1, SVG Export Plug-In . SVG Version: 6.00 Build 0)  -->
<svg version="1.1" xmlns="http://www.w3.org/2000/svg" xmlns:xlink="http://www.w3.org/1999/xlink" x="0px" y="0px"
	 viewBox="0 0 300 300" style="enable-background:new 0 0 300 300;" xml:space="preserve">
<style type="text/css">
	.st0{display:none;}
	.st1{fill:#F9C68C;}
	.st2{fill:#713516;}
	.st3{fill:#40AFB0;}
	.st4{fill:#EF5353;}
	.st5{fill:#EBB148;}
</style>
<g id="Layer_1" class="st0">
</g>
<g id="Layer_2">
	<g id="XMLID_818_">
		<g id="XMLID_855_">
			<path id="XMLID_1238_" class="st1" d="M52.6,143.5c0,0-13.1-6.5-14,10.4c-0.9,16.9,13.1,31.3,28.7,29.9"/>
		</g>
		<g id="XMLID_854_">
			<path id="XMLID_1120_" class="st2" d="M65.2,185.9c-6.7,0-13.2-2.6-18.6-7.5c-6.9-6.3-10.6-15.3-10.1-24.6
				c0.3-6.2,2.3-10.4,5.9-12.3c5-2.7,10.9,0.2,11.2,0.3l-1.9,3.5c0,0-4.2-2-7.2-0.4c-2.8,1.5-3.6,5.8-3.8,9.1
				c-0.4,8.1,2.9,16.1,8.8,21.6c5,4.6,11.3,6.8,17.6,6.3l0.4,3.9C66.7,185.9,65.9,185.9,65.2,185.9z"/>
		</g>
		<g id="XMLID_851_">
			<path id="XMLID_1102_" class="st3" d="M223.3,299.7H70.9v0c0-28.7,24.5-52,54.7-52h43C198.8,247.7,223.3,271,223.3,299.7
				L223.3,299.7z"/>
		</g>
		<g id="XMLID_850_">
			<path id="XMLID_1116_" class="st2" d="M225.4,301.6H68.8v-1.9c0-29.7,25.5-53.9,56.8-53.9h43c31.3,0,56.8,24.2,56.8,53.9V301.6z
				 M73,297.7h148.2c-1.1-26.7-24.3-48.1-52.6-48.1h-43C97.3,249.6,74.1,271,73,297.7z"/>
		</g>
		<g id="XMLID_849_">
			<path id="XMLID_1237_" class="st1" d="M164.5,246.4v-22.4h-34.8v22.4C129.7,267.4,164.5,267.4,164.5,246.4z"/>
		</g>
		<g id="XMLID_848_">
			<path id="XMLID_1113_" class="st2" d="M147.1,264.1c-9.7,0-19.4-6.1-19.4-17.7V222h38.9v24.4C166.5,258,156.8,264.1,147.1,264.1z
				 M131.8,225.9v20.5c0,9.5,8,13.8,15.3,13.8c7.4,0,15.3-4.3,15.3-13.8v-20.5H131.8z"/>
		</g>
		<g id="XMLID_847_">
			<path id="XMLID_1236_" class="st1" d="M241.6,143.5c0,0,13.1-6.5,14,10.4c0.9,16.9-13.1,31.3-28.7,29.9"/>
		</g>
		<g id="XMLID_846_">
			<path id="XMLID_1235_" class="st1" d="M241.6,131.4c0,49.5-42.3,105.3-94.5,105.3c-52.2,0-94.5-55.8-94.5-105.3s42.3-74,94.5-74
				C199.3,57.4,241.6,81.9,241.6,131.4z"/>
		</g>
		<g id="XMLID_845_">
			<path id="XMLID_1110_" class="st2" d="M147.1,238.6c-54.4,0-96.5-57.6-96.5-107.2c0-23.9,9.8-43.7,28.5-57.1
				c17.1-12.3,40.6-18.8,68-18.8s50.9,6.5,68,18.8c18.6,13.4,28.5,33.2,28.5,57.1C243.6,181,201.5,238.6,147.1,238.6z M147.1,59.4
				c-44.7,0-92.4,18.9-92.4,72c0,23.8,10.2,49.9,27.2,70c18.3,21.5,41.4,33.4,65.2,33.4s46.9-11.8,65.2-33.4
				c17-20.1,27.2-46.2,27.2-70C239.5,78.3,191.8,59.4,147.1,59.4z"/>
		</g>
		<g id="XMLID_844_">
			<path id="XMLID_1109_" class="st2" d="M229,185.9c-0.7,0-1.5,0-2.2-0.1l0.4-3.9c6.3,0.5,12.5-1.7,17.6-6.3
				c6-5.5,9.3-13.5,8.8-21.6c-0.2-3.3-1-7.6-3.8-9.1c-3-1.6-7.2,0.3-7.2,0.4l-1.9-3.5c0.2-0.1,6.2-3,11.2-0.3
				c3.6,1.9,5.5,6.1,5.9,12.3c0.5,9.3-3.2,18.3-10.1,24.6C242.2,183.3,235.7,185.9,229,185.9z"/>
		</g>
		<g id="XMLID_841_">
			<g id="XMLID_843_">
				<ellipse id="XMLID_1234_" class="st2" cx="111.9" cy="149.7" rx="6.8" ry="6.5"/>
			</g>
			<g id="XMLID_842_">
				<ellipse id="XMLID_1233_" class="st2" cx="182.3" cy="149.7" rx="6.8" ry="6.5"/>
			</g>
		</g>
		<g id="XMLID_838_">
			<g id="XMLID_840_">
				<path id="XMLID_1232_" class="st2" d="M118.7,191.8h56.8c0,0-4.6,23.1-28.4,23.2C124.1,215.1,118.7,191.8,118.7,191.8z"/>
			</g>
			<g id="XMLID_839_">
				<path id="XMLID_1231_" class="st4" d="M128.4,208.1c0,0,7-7.8,20.7-7c13.7,0.7,17.9,6,17.9,6s-4.3,8.7-18.3,7.9
					C134.9,214.1,128.4,208.1,128.4,208.1z"/>
			</g>
		</g>
		<g id="XMLID_834_">
			<path id="XMLID_1106_" class="st2" d="M147,216.9c-24.2,0-30.2-24.4-30.3-24.7c-0.1-0.6,0-1.2,0.4-1.6c0.4-0.5,1-0.7,1.6-0.7
				h56.8c0.6,0,1.2,0.3,1.6,0.7c0.4,0.4,0.5,1,0.4,1.6c0,0.2-5.2,24.6-30.4,24.8C147.1,216.9,147,216.9,147,216.9z M121.4,193.8
				c2,5.6,8.6,19.3,25.5,19.3c0,0,0.1,0,0.1,0c17.7-0.1,23.9-13.7,25.8-19.3H121.4z"/>
		</g>
		<g id="XMLID_830_">
			<path id="XMLID_1230_" class="st4" d="M150.2,169.5c0,1.7-1.4,3-3.1,3c-1.7,0-3.1-1.3-3.1-3s1.4-3,3.1-3
				C148.8,166.5,150.2,167.9,150.2,169.5z"/>
		</g>
		<g id="XMLID_707_">
			<g id="XMLID_677_">
				<path id="XMLID_1229_" class="st5" d="M56.6,158.4c0,0-1.3-11.2-10.4-16v-2.7V75.8c0-27.1,24.8-48.3,53.1-45.2
					c0,0,36.4-37.3,83.1-20c46.7,17.3,82.3,40.7,113.3,25.1c0,0-15.1,35.9-44.9,47.9v59.6c-11.3,1.3-14.1,18.6-14.1,18.6l0.5-28.7
					c0,0-98.5,0.2-124.2-58.5c0,0-7.8,26.6-30.6,42.2l-4.6-10.4C77.6,106.4,56.6,113.6,56.6,158.4z"/>
			</g>
		</g>
		<g id="XMLID_823_">
			<g id="XMLID_703_">
				<path id="XMLID_1103_" class="st2" d="M236.6,163.8c-0.1,0-0.1,0-0.2,0c-1.1-0.1-1.9-0.9-1.9-2l0.4-26.7
					c-6.6-0.2-27.8-1.2-50.9-7.3c-34.8-9.1-59.1-25.6-70.9-47.9c-3.4,8.5-12.2,26.5-29.7,38.5c-0.5,0.3-1.2,0.5-1.8,0.3
					c-0.6-0.2-1.1-0.6-1.3-1.1l-3.7-8.4c-4.8,2.9-18,14.2-18,49.3c0,1-0.9,1.9-1.9,1.9c-1.1,0-2-0.7-2.2-1.7l0,0
					c0-0.1-1.3-10.2-9.4-14.5c-0.6-0.3-1-1-1-1.7V75.8c0-13.5,6.1-26.5,16.7-35.5c10.3-8.7,23.9-13,37.6-11.7
					c5.5-5.2,40.8-36,84.6-19.8c10.6,3.9,20.5,8.1,30.1,12.2c32.6,13.8,58.4,24.7,81.6,13.1c0.8-0.4,1.7-0.3,2.3,0.3
					c0.6,0.5,0.9,1.4,0.5,2.2c-0.6,1.5-15.3,35.9-44.8,48.4v58.3c0,1-0.8,1.8-1.8,1.9c-9.6,1.1-12.3,16.8-12.4,16.9
					C238.5,163.1,237.6,163.8,236.6,163.8z M237.1,131.2c0.5,0,1.1,0.2,1.5,0.6c0.4,0.4,0.6,0.9,0.6,1.4l-0.3,16.6
					c2.2-3.6,5.3-7,9.8-8.2v-58c0-0.8,0.5-1.5,1.3-1.8c22.4-8.9,36.4-32.1,41.6-42.1c-23.6,8.7-49.9-2.4-80-15.2
					c-9.5-4-19.4-8.2-29.9-12.1C136.7-4.2,101.1,31.6,100.7,32c-0.4,0.5-1.1,0.7-1.7,0.6c-12.8-1.4-25.7,2.5-35.4,10.7
					c-9.8,8.3-15.4,20.1-15.4,32.6v65.5c3,1.9,5.1,4.3,6.7,6.8c2.9-36.6,21.2-43.2,22.1-43.5c1-0.4,2.2,0.1,2.6,1.1l3.5,8.1
					c20.4-15.2,27.7-39.4,27.8-39.6c0.2-0.8,1-1.4,1.9-1.4c0.9-0.1,1.7,0.4,2,1.2C139.6,130.6,235.7,131.2,237.1,131.2
					C237.1,131.2,237.1,131.2,237.1,131.2z"/>
			</g>
		</g>
	</g>
</g>
</svg>
