<?xml version="1.0" encoding="utf-8"?>
<!-- Generator: Adobe Illustrator 25.3.1, SVG Export Plug-In . SVG Version: 6.00 Build 0)  -->
<svg version="1.1" xmlns="http://www.w3.org/2000/svg" xmlns:xlink="http://www.w3.org/1999/xlink" x="0px" y="0px"
	 viewBox="0 0 300 300" style="enable-background:new 0 0 300 300;" xml:space="preserve">
<style type="text/css">
	.st0{display:none;}
	.st1{fill:#CE912F;}
	.st2{fill:#713516;}
	.st3{fill:#F9C68C;}
	.st4{fill:#85B440;}
	.st5{fill:#EF5353;}
	.st6{fill:#EBB148;}
</style>
<g id="Layer_1" class="st0">
</g>
<g id="Layer_2">
	<g id="XMLID_633_">
		<g id="XMLID_648_">
			<path id="XMLID_1208_" class="st1" d="M243.8,181c0,0-12.9,22.1-4.5,36.4s10.7,22.8,0.8,38.6c-9.9,15.8,6.6,32.6,6.6,32.6
				s-59.8,8.2-94.6-1.9c-34.8,10.1-94.6,1.9-94.6,1.9s16.5-16.8,6.6-32.6s-7.7-24.3,0.8-38.6S60.3,181,60.3,181"/>
		</g>
		<g id="XMLID_789_">
			<path id="XMLID_803_" class="st2" d="M198.2,293.6c-15.8,0-32.6-1.2-46.1-5c-34.9,9.9-92.5,2.1-94.9,1.8
				c-0.7-0.1-1.3-0.6-1.6-1.3c-0.2-0.7-0.1-1.4,0.4-1.9c0.2-0.2,15.3-15.9,6.3-30.3c-10.3-16.4-8.1-25.7,0.8-40.5
				c7.8-13.1-4.3-34.3-4.5-34.5l3.4-1.9c0.6,0.9,13.4,23.2,4.4,38.2c-8.6,14.3-10,22-0.8,36.6c8.1,12.9-0.1,26.4-4.5,32.1
				c13.2,1.5,61.1,6.2,90.3-2.3c0.4-0.1,0.8-0.1,1.1,0c29.2,8.5,77.1,3.8,90.3,2.3c-4.4-5.7-12.6-19.2-4.5-32.1
				c9.2-14.6,7.8-22.3-0.8-36.6c-8.9-15,3.9-37.3,4.4-38.2l3.4,1.9c-0.1,0.2-12.3,21.4-4.5,34.5c8.8,14.8,11,24.1,0.8,40.5
				c-9,14.4,6.1,30.1,6.3,30.3c0.5,0.5,0.7,1.3,0.4,1.9c-0.2,0.7-0.8,1.2-1.6,1.3C245.5,290.6,223.2,293.6,198.2,293.6z"/>
		</g>
		<g id="XMLID_788_">
			<path id="XMLID_1207_" class="st3" d="M61.3,145.8c0,0-12.5-6.3-13.4,10.1C47,172.3,60.4,186.3,75.2,185"/>
		</g>
		<g id="XMLID_779_">
			<path id="XMLID_799_" class="st2" d="M73.3,187c-6.4,0-12.6-2.5-17.7-7.3c-6.6-6.1-10.1-14.9-9.6-23.9c0.3-6.1,2.2-10.1,5.6-12
				c4.7-2.6,10.4,0.2,10.6,0.3l-1.8,3.4l0.9-1.7l-0.9,1.7c0,0-4-2-6.9-0.3c-2.7,1.5-3.5,5.7-3.6,8.9c-0.4,7.8,2.7,15.7,8.4,21
				c4.8,4.5,10.8,6.7,16.8,6.1l0.4,3.8C74.7,186.9,74,187,73.3,187z"/>
		</g>
		<g id="XMLID_748_">
			<path id="XMLID_625_" class="st4" d="M224.2,297.7H78.7v0c0-27.9,23.4-50.6,52.2-50.6h41C200.8,247.1,224.2,269.7,224.2,297.7
				L224.2,297.7z"/>
		</g>
		<g id="XMLID_675_">
			<path id="XMLID_774_" class="st2" d="M226.1,299.5H76.8v-1.9c0-28.9,24.3-52.5,54.2-52.5h41c29.9,0,54.2,23.5,54.2,52.5V299.5z
				 M80.7,295.8h141.4c-1-26-23.2-46.8-50.2-46.8h-41C103.9,249,81.7,269.8,80.7,295.8z"/>
		</g>
		<g id="XMLID_674_">
			<path id="XMLID_1206_" class="st3" d="M168,245.8l0-21.8h-33.2v21.8C134.8,266.2,168,266.2,168,245.8z"/>
		</g>
		<g id="XMLID_673_">
			<path id="XMLID_769_" class="st2" d="M151.4,263c-9.2,0-18.6-5.9-18.6-17.2v-23.7H170v23.7C170,257.1,160.7,263,151.4,263z
				 M136.8,225.9v19.9c0,9.2,7.6,13.4,14.6,13.4c7.1,0,14.6-4.2,14.6-13.4v-19.9H136.8z"/>
		</g>
		<g id="XMLID_672_">
			<path id="XMLID_1205_" class="st3" d="M241.6,145.8c0,0,12.5-6.3,13.4,10.1c0.9,16.4-12.5,30.4-27.3,29.1"/>
		</g>
		<g id="XMLID_671_">
			<path id="XMLID_1204_" class="st3" d="M241.6,134c0,48.2-40.4,102.4-90.1,102.4S61.3,182.1,61.3,134s40.4-72,90.1-72
				S241.6,85.8,241.6,134z"/>
		</g>
		<g id="XMLID_670_">
			<path id="XMLID_656_" class="st2" d="M151.4,238.3c-51.9,0-92.1-56.1-92.1-104.3c0-23.3,9.4-42.5,27.2-55.6
				c16.3-12,38.8-18.3,64.9-18.3s48.6,6.3,64.9,18.3c17.8,13.1,27.2,32.3,27.2,55.6C243.5,182.2,203.3,238.3,151.4,238.3z
				 M151.4,63.9c-42.6,0-88.2,18.4-88.2,70.1c0,23.1,9.7,48.6,26,68.1c17.4,20.9,39.5,32.5,62.2,32.5s44.8-11.5,62.2-32.5
				c16.3-19.5,26-45,26-68.1C239.6,82.3,194.1,63.9,151.4,63.9z"/>
		</g>
		<g id="XMLID_669_">
			<path id="XMLID_654_" class="st2" d="M229.6,187c-0.7,0-1.4,0-2.1-0.1l0.4-3.8c6,0.5,12-1.7,16.8-6.1c5.7-5.3,8.8-13.2,8.4-21
				c-0.2-3.2-0.9-7.4-3.6-8.9c-2.9-1.6-6.8,0.3-6.9,0.4l-1.8-3.4c0.2-0.1,5.9-2.9,10.6-0.3c3.4,1.9,5.3,5.9,5.6,12
				c0.5,9.1-3,17.8-9.6,23.9C242.2,184.4,236,187,229.6,187z"/>
		</g>
		<g id="XMLID_666_">
			<g id="XMLID_668_">
				<ellipse id="XMLID_1203_" class="st2" cx="117.8" cy="151.8" rx="6.5" ry="6.3"/>
			</g>
			<g id="XMLID_667_">
				<ellipse id="XMLID_1202_" class="st2" cx="185.1" cy="151.8" rx="6.5" ry="6.3"/>
			</g>
		</g>
		<g id="XMLID_663_">
			<g id="XMLID_665_">
				<path id="XMLID_1201_" class="st2" d="M124.3,192.7h54.2c0,0-4.4,22.4-27.1,22.5C129.5,215.4,124.3,192.7,124.3,192.7z"/>
			</g>
			<g id="XMLID_664_">
				<path id="XMLID_1200_" class="st5" d="M133.6,208.6c0,0,6.7-7.5,19.8-6.8c13.1,0.7,17.1,5.8,17.1,5.8s-4.1,8.5-17.4,7.7
					C139.8,214.4,133.6,208.6,133.6,208.6z"/>
			</g>
		</g>
		<g id="XMLID_657_">
			<path id="XMLID_651_" class="st2" d="M151.3,217.2c-23.1,0-28.8-23.8-28.9-24c-0.1-0.6,0-1.1,0.4-1.6c0.4-0.4,0.9-0.7,1.5-0.7
				h54.2c0.6,0,1.1,0.3,1.5,0.7c0.4,0.4,0.5,1,0.4,1.6c0,0.2-5,24-29,24.1C151.4,217.2,151.3,217.2,151.3,217.2z M126.9,194.6
				c1.9,5.5,8.2,18.7,24.4,18.7c0,0,0.1,0,0.1,0c16.9-0.1,22.8-13.3,24.6-18.7H126.9z"/>
		</g>
		<g id="XMLID_655_">
			<path id="XMLID_1199_" class="st5" d="M154.4,171c0,1.6-1.3,2.9-3,2.9c-1.7,0-3-1.3-3-2.9c0-1.6,1.3-2.9,3-2.9
				C153.1,168.1,154.4,169.4,154.4,171z"/>
		</g>
		<g id="XMLID_632_">
			<g id="XMLID_1081_">
				<path id="XMLID_1197_" class="st6" d="M250.3,109.9c0,0,12.3,29.7,34.5,24.7c0,0-24.2,23.5-57.2,21.5
					c-41.3-2.5-96.2-29.7-108.9-77.3c0,0-37.3,10.8-47.3,35.7c-10,24.9-6.4,45.7-6.4,45.7s-1.3-10.9-9.9-15.6V142V79.9
					c0-26.3,23.6-47,50.6-44c1,0.1,1.6,0.2,1.6,0.2C112.6,22.2,142-1.8,189,9.9c0.8,0.2,1.7,0.4,2.5,0.7
					c35.1,9.8,58.9,41.5,58.9,76.9v20V109.9z"/>
			</g>
		</g>
		<g id="XMLID_645_">
			<g id="XMLID_646_">
				<path id="XMLID_627_" class="st2" d="M65,162.1c-0.9,0-1.8-0.7-1.9-1.6c0-0.1,0-0.3-0.1-0.6c-0.3-2-2.1-10-8.9-13.7
					c-0.6-0.3-1-1-1-1.7V79.9c0-13.2,5.8-25.8,16-34.5C79.2,36.7,92.7,32.5,106,34c0,0,0.1,0,0.1,0c7.1-15.4,37.2-37.5,83.3-26
					c0.9,0.2,1.7,0.4,2.5,0.7c35.5,9.9,60.3,42.3,60.3,78.7v22c1.4,3.1,13,27.5,32.1,23.2c0.9-0.2,1.7,0.2,2.2,0.9
					c0.4,0.7,0.3,1.7-0.3,2.3c-1,1-25.2,24.1-58.7,22c-22.2-1.4-46.3-9.4-66.1-22.1c-15.8-10.1-36.1-27.7-44-54.7
					c-7.6,2.6-35.9,13.4-44.1,34c-8.8,22.1-6.8,41.1-6.4,44.3c0.1,0.3,0.1,0.5,0.1,0.6c0.1,1-0.6,1.9-1.7,2.1
					C65.2,162.1,65.1,162.1,65,162.1z M118.7,76.8c0.3,0,0.7,0.1,1,0.2c0.5,0.3,0.8,0.7,0.9,1.2c11.7,44.1,63.6,73.2,107.1,75.9
					c23.6,1.5,42.7-10.7,51.1-17.1c-19.5-0.7-29.9-25.3-30.3-26.4c-0.1-0.2-0.1-0.5-0.1-0.7V87.5c0-34.8-23.6-65.6-57.5-75.1
					c-0.8-0.2-1.6-0.4-2.4-0.6c-44.6-11.1-74.1,11.2-79.3,25c-0.3,0.9-1.2,1.4-2.2,1.2c0,0-0.6-0.1-1.5-0.2
					C93.3,36.4,81,40.2,71.8,48.2c-9.3,8-14.7,19.6-14.7,31.7v63.7c2.3,1.4,4,3.2,5.4,5.1c0.2-8.6,1.6-21.1,7.2-34.9
					c10.2-25.5,47-36.4,48.6-36.9C118.4,76.8,118.6,76.8,118.7,76.8z"/>
			</g>
		</g>
	</g>
</g>
</svg>
