<?xml version="1.0" encoding="utf-8"?>
<!-- Generator: Adobe Illustrator 25.3.1, SVG Export Plug-In . SVG Version: 6.00 Build 0)  -->
<svg version="1.1" xmlns="http://www.w3.org/2000/svg" xmlns:xlink="http://www.w3.org/1999/xlink" x="0px" y="0px"
	 viewBox="0 0 300 300" style="enable-background:new 0 0 300 300;" xml:space="preserve">
<style type="text/css">
	.st0{display:none;}
	.st1{fill:#CD5227;}
	.st2{fill:#713516;}
	.st3{fill:#F9C68C;}
	.st4{fill:#40AFB0;}
	.st5{fill:#F3712A;}
	.st6{fill:#EF5353;}
</style>
<g id="Layer_1" class="st0">
</g>
<g id="Layer_2">
	<g id="XMLID_747_">
		<g id="XMLID_761_">
			<path id="XMLID_1161_" class="st1" d="M244,180.9c0,0-10.6,40.5-3.8,65.2c6.8,24.7,17,35.2,17,35.2h-28.2h-145H55.7
				c0,0,10.2-10.5,17-35.2c6.8-24.7-3.8-65.2-3.8-65.2H244z"/>
		</g>
		<g id="XMLID_735_">
			<path id="XMLID_1164_" class="st2" d="M83.9,283.3H55.7c-0.8,0-1.5-0.5-1.9-1.2c-0.3-0.7-0.2-1.6,0.4-2.1
				c0.1-0.1,10-10.5,16.5-34.4c6.6-24-3.7-63.9-3.8-64.3l3.9-1c0.4,1.7,10.6,41.3,3.8,66.2c-4.8,17.4-11.2,27.9-14.8,32.8h24V283.3z
				"/>
		</g>
		<g id="XMLID_762_">
			<path id="XMLID_1163_" class="st2" d="M257.1,283.3h-28.2v-3.9h24c-3.6-4.9-10-15.4-14.8-32.8c-6.8-25,3.4-64.6,3.8-66.2l3.9,1
				c-0.1,0.4-10.4,40.3-3.8,64.3c6.5,23.9,16.4,34.3,16.5,34.4c0.6,0.6,0.7,1.4,0.4,2.1C258.7,282.9,258,283.3,257.1,283.3z"/>
		</g>
		<g id="XMLID_736_">
			<g id="XMLID_760_">
				<path id="XMLID_1256_" class="st3" d="M62.8,141c0,0-13-6.6-13.9,10.5c-0.9,17.1,13,31.6,28.4,30.2"/>
			</g>
			<g id="XMLID_759_">
				<path id="XMLID_1162_" class="st2" d="M75.3,183.8c-6.7,0-13.1-2.6-18.4-7.5c-6.9-6.4-10.5-15.4-10-24.8
					c0.3-6.3,2.3-10.5,5.8-12.4c4.9-2.7,10.8,0.2,11,0.3l-1.9,3.5c0,0-4.2-2-7.2-0.4c-2.8,1.6-3.6,5.9-3.8,9.2
					c-0.4,8.1,2.8,16.3,8.8,21.8c5,4.6,11.2,6.9,17.4,6.4l0.4,3.9C76.8,183.7,76,183.8,75.3,183.8z"/>
			</g>
			<g id="XMLID_756_">
				<path id="XMLID_1150_" class="st4" d="M231.9,298.6h-151l0,0c0-29,24.3-52.5,54.2-52.5h42.6
					C207.6,246.1,231.9,269.6,231.9,298.6L231.9,298.6z"/>
			</g>
			<g id="XMLID_755_">
				<path id="XMLID_1158_" class="st2" d="M234,300.6H78.9v-2c0-30,25.2-54.4,56.3-54.4h42.6c31,0,56.3,24.4,56.3,54.4V300.6z
					 M83,296.6h146.9c-1.1-26.9-24.1-48.5-52.2-48.5h-42.6C107,248.1,84.1,269.7,83,296.6z"/>
			</g>
			<g id="XMLID_754_">
				<path id="XMLID_1255_" class="st3" d="M173.7,244.8l0-22.7h-34.5v22.7C139.2,266,173.7,266,173.7,244.8z"/>
			</g>
			<g id="XMLID_753_">
				<path id="XMLID_1155_" class="st2" d="M156.4,262.7c-9.6,0-19.3-6.1-19.3-17.9v-24.6h38.5v24.6
					C175.7,256.5,166,262.7,156.4,262.7z M141.2,224.1v20.7c0,9.6,7.9,13.9,15.2,13.9c7.3,0,15.2-4.4,15.2-13.9v-20.7H141.2z"/>
			</g>
			<g id="XMLID_752_">
				<path id="XMLID_1254_" class="st3" d="M250,141c0,0,13-6.6,13.9,10.5c0.9,17.1-13,31.6-28.4,30.2"/>
			</g>
			<g id="XMLID_751_">
				<path id="XMLID_1253_" class="st3" d="M250,128.8c0,50-41.9,106.3-93.6,106.3s-93.6-56.3-93.6-106.3s41.9-74.7,93.6-74.7
					S250,78.8,250,128.8z"/>
			</g>
			<g id="XMLID_750_">
				<path id="XMLID_1152_" class="st2" d="M156.4,237c-53.9,0-95.6-58.2-95.6-108.2c0-24.2,9.8-44.1,28.2-57.6
					c16.9-12.4,40.3-19,67.4-19c27.2,0,50.5,6.6,67.4,19c18.5,13.5,28.2,33.5,28.2,57.6C252,178.8,210.3,237,156.4,237z M156.4,56.1
					c-44.3,0-91.6,19.1-91.6,72.7c0,24,10.1,50.4,27,70.6c18.1,21.7,41,33.7,64.6,33.7c23.6,0,46.5-12,64.6-33.7
					c16.9-20.3,27-46.7,27-70.6C248,75.2,200.7,56.1,156.4,56.1z"/>
			</g>
			<g id="XMLID_749_">
				<path id="XMLID_1151_" class="st2" d="M237.6,183.8c-0.7,0-1.5,0-2.2-0.1l0.4-3.9c6.2,0.5,12.4-1.7,17.4-6.4
					c5.9-5.5,9.2-13.6,8.8-21.8c-0.2-3.3-1-7.7-3.8-9.2c-3-1.7-7.1,0.3-7.1,0.4l-1.9-3.5c0.2-0.1,6.1-3,11-0.3
					c3.5,2,5.5,6.1,5.8,12.4c0.5,9.4-3.1,18.4-10,24.8C250.7,181.1,244.2,183.8,237.6,183.8z"/>
			</g>
			<g id="XMLID_746_">
				<path id="XMLID_1143_" class="st5" d="M225.4,27.7l13-19.9L204,17.9l0,0c-6.6-1.9-13.7-2.9-20.9-2.9h-52.4
					c-41.4,0-75,32.5-75,72.6v52.1c7.4,38,16.1,73.4,16.1,73.4L71.6,132c0-13.2,11-23.8,24.6-23.8H121c22.2,0,42.5-11.7,53.1-30.5v0
					v0c4.4,18.3,21.2,31.2,40.6,31.2h3.3c13.6,0,24.6,10.7,24.6,23.8l-3.7,76.8c4.5-10.2,19.3-69.3,19.3-69.3V87.7
					C258.1,62.8,245.2,40.8,225.4,27.7z"/>
			</g>
			<g id="XMLID_745_">
				<path id="XMLID_1147_" class="st2" d="M74.3,215.1c-0.8,0-1.6-0.5-1.9-1.3c-0.1-0.2-7.8-21.1-13.4-47.7
					c-3.6-16.8-5.4-34.3-5.4-51.9V87.7c0-41.1,34.6-74.6,77-74.6h52.4c7,0,14.1,0.9,20.9,2.8L237.9,6c0.8-0.2,1.7,0,2.2,0.7
					c0.5,0.7,0.6,1.5,0.1,2.2l-12,18.3c20.1,14,32,36.5,32,60.5v32.3c0,13.8-1.8,27.6-5.2,41c-2.8,10.6-5.6,20.3-8.4,29.6
					c-2,6.8-3.9,13.1-5.7,19.5c-0.3,1-1.2,1.6-2.3,1.4c-1-0.2-1.8-1-1.7-2l3.7-76.8c0-12-10.1-21.8-22.6-21.8h-3.3
					c-18.8,0-35.1-11.4-41.2-28.3c-11.5,17.1-31.1,27.6-52.5,27.6H96.2c-12.5,0-22.6,9.8-22.6,21.9l2.7,81c0,1-0.7,1.8-1.6,2
					C74.6,215.1,74.5,215.1,74.3,215.1z M130.7,17c-40.2,0-73,31.7-73,70.6v26.6c0,17.3,1.8,34.5,5.3,51.1
					c2.8,13.4,6.2,25.3,8.8,33.8l-2.3-67.1c0-14.3,12-25.9,26.7-25.9H121c21.4,0,41.1-11.3,51.3-29.5c0.4-0.7,1.2-1.1,2.1-1
					c0.8,0.1,1.5,0.7,1.7,1.5c4.2,17.5,20,29.7,38.6,29.7h3.3c14.7,0,26.7,11.6,26.7,25.8l-2.9,59.7c0.3-1,0.6-2,0.9-2.9
					c2.8-9.3,5.7-18.9,8.4-29.5c3.4-13,5.1-26.5,5.1-40V87.7c0-23.3-11.9-45.1-31.8-58.3c-0.9-0.6-1.2-1.8-0.6-2.7l10.1-15.4
					L205,19.7c-0.4,0.2-0.9,0.3-1.4,0.1C196.9,18,190,17,183.1,17H130.7z"/>
			</g>
			<g id="XMLID_742_">
				<g id="XMLID_744_">
					<ellipse id="XMLID_1252_" class="st2" cx="121.5" cy="147.2" rx="6.8" ry="6.6"/>
				</g>
				<g id="XMLID_743_">
					<ellipse id="XMLID_1251_" class="st2" cx="191.3" cy="147.2" rx="6.8" ry="6.6"/>
				</g>
			</g>
			<g id="XMLID_739_">
				<g id="XMLID_741_">
					<path id="XMLID_1250_" class="st2" d="M128.3,189.8h56.3c0,0-4.6,23.3-28.1,23.4C133.7,213.2,128.3,189.8,128.3,189.8z"/>
				</g>
				<g id="XMLID_740_">
					<path id="XMLID_1249_" class="st6" d="M137.9,206.2c0,0,7-7.8,20.6-7.1c13.6,0.7,17.7,6.1,17.7,6.1s-4.3,8.8-18.1,8
						C144.3,212.2,137.9,206.2,137.9,206.2z"/>
				</g>
			</g>
			<g id="XMLID_738_">
				<path id="XMLID_1144_" class="st2" d="M156.3,215.1c-24,0-29.9-24.7-30-24.9c-0.1-0.6,0-1.2,0.4-1.7c0.4-0.5,1-0.7,1.6-0.7h56.3
					c0.6,0,1.2,0.3,1.6,0.7c0.4,0.5,0.5,1,0.4,1.6c0,0.2-5.2,24.9-30.1,25C156.4,215.1,156.3,215.1,156.3,215.1z M131,191.7
					c2,5.7,8.6,19.5,25.4,19.5c17.5-0.1,23.7-13.8,25.5-19.5H131z"/>
			</g>
			<g id="XMLID_737_">
				<path id="XMLID_1248_" class="st6" d="M159.5,167.2c0,1.7-1.4,3-3.1,3c-1.7,0-3.1-1.4-3.1-3c0-1.7,1.4-3,3.1-3
					C158.1,164.2,159.5,165.6,159.5,167.2z"/>
			</g>
		</g>
	</g>
</g>
</svg>
