<?xml version="1.0" encoding="utf-8"?>
<!-- Generator: Adobe Illustrator 25.3.1, SVG Export Plug-In . SVG Version: 6.00 Build 0)  -->
<svg version="1.1" xmlns="http://www.w3.org/2000/svg" xmlns:xlink="http://www.w3.org/1999/xlink" x="0px" y="0px"
	 viewBox="0 0 300 300" style="enable-background:new 0 0 300 300;" xml:space="preserve">
<style type="text/css">
	.st0{display:none;}
	.st1{fill:#723F2D;}
	.st2{fill:#713516;}
	.st3{fill:#F9C68C;}
	.st4{fill:#6766AE;}
	.st5{fill:#EF5353;}
	.st6{fill:#7B4732;}
</style>
<g id="Layer_1" class="st0">
</g>
<g id="Layer_2">
	<g id="XMLID_680_">
		<g id="XMLID_679_">
			<path id="XMLID_1219_" class="st1" d="M231,194.2c0,0,16.8,9,12,36.5c-4.8,27.4,1.8,50.2,34.1,51.9c0,0-45.5,14.9-63.4-19.9
				c-17.9-34.8-9.6-46-24.5-52.7"/>
		</g>
		<g id="XMLID_678_">
			<path id="XMLID_870_" class="st2" d="M255.3,287.6c-14.8,0-33.4-4.5-43.4-24c-8.3-16-11-27-13-35.1c-2.3-9.3-3.3-13.5-10.6-16.8
				l1.7-3.4c9,4,10.4,9.8,12.7,19.3c2,7.9,4.6,18.6,12.7,34.3c12.1,23.5,37.1,23.4,51.1,21.2c-8.1-1.9-14.4-5.6-18.9-11
				c-7.6-9.2-9.9-23.2-6.6-41.7c4.5-25.8-10.9-34.4-11-34.5l1.9-3.3c0.7,0.4,18,10,13,38.4c-3,17.3-1.1,30.4,5.8,38.7
				c5.5,6.7,14.5,10.4,26.5,11c0.9,0,1.7,0.7,1.8,1.6c0.1,0.9-0.4,1.8-1.3,2.1C277.5,284.5,267.7,287.6,255.3,287.6z"/>
		</g>
		<g id="XMLID_820_">
			<path id="XMLID_1218_" class="st3" d="M68.5,147.2c0,0-12.6-6.3-13.5,10.1c-0.9,16.5,12.5,30.4,27.5,29.1"/>
		</g>
		<g id="XMLID_819_">
			<path id="XMLID_869_" class="st2" d="M80.5,188.5c-6.4,0-12.7-2.5-17.8-7.3c-6.6-6.2-10.2-14.9-9.7-24c0.3-6.1,2.2-10.1,5.6-12
				c4.8-2.6,10.5,0.2,10.7,0.3l-1.8,3.4c0,0-4-2-6.9-0.3c-2.7,1.5-3.5,5.7-3.7,8.9c-0.4,7.9,2.8,15.7,8.5,21
				c4.8,4.5,10.8,6.7,16.9,6.1l0.4,3.8C82,188.4,81.2,188.5,80.5,188.5z"/>
		</g>
		<g id="XMLID_816_">
			<path id="XMLID_798_" class="st4" d="M232.2,299.3H86v0c0-28,23.5-50.6,52.5-50.6h41.2C208.7,248.6,232.2,271.3,232.2,299.3
				L232.2,299.3z"/>
		</g>
		<g id="XMLID_815_">
			<path id="XMLID_863_" class="st2" d="M234.1,301.2H84v-1.9c0-29,24.4-52.5,54.5-52.5h41.2c30,0,54.5,23.6,54.5,52.5V301.2z
				 M88,297.4h142.2c-1-26-23.3-46.8-50.5-46.8h-41.2C111.3,250.5,89,271.4,88,297.4z"/>
		</g>
		<g id="XMLID_814_">
			<path id="XMLID_1217_" class="st3" d="M175.8,247.4l0-21.9h-33.4v21.9C142.4,267.8,175.8,267.8,175.8,247.4z"/>
		</g>
		<g id="XMLID_813_">
			<path id="XMLID_852_" class="st2" d="M159.1,264.6c-9.3,0-18.7-5.9-18.7-17.2v-23.8h37.3v23.8
				C177.7,258.7,168.3,264.6,159.1,264.6z M144.4,227.4v20c0,9.2,7.6,13.4,14.7,13.4c7.1,0,14.7-4.2,14.7-13.4v-20H144.4z"/>
		</g>
		<g id="XMLID_812_">
			<path id="XMLID_1216_" class="st3" d="M249.7,147.2c0,0,12.6-6.3,13.5,10.1c0.9,16.5-12.5,30.4-27.5,29.1"/>
		</g>
		<g id="XMLID_811_">
			<path id="XMLID_1215_" class="st3" d="M249.7,135.4c0,48.2-40.6,102.5-90.6,102.5s-90.6-54.3-90.6-102.5s40.6-72,90.6-72
				S249.7,87.2,249.7,135.4z"/>
		</g>
		<g id="XMLID_810_">
			<path id="XMLID_835_" class="st2" d="M159.1,239.8c-52.1,0-92.6-56.1-92.6-104.4c0-23.3,9.4-42.6,27.3-55.6
				c16.4-12,39-18.3,65.3-18.3c26.3,0,48.9,6.3,65.3,18.3c17.9,13.1,27.3,32.3,27.3,55.6C251.7,183.7,211.2,239.8,159.1,239.8z
				 M159.1,65.3c-42.9,0-88.6,18.4-88.6,70.1c0,23.1,9.8,48.6,26.1,68.2c17.5,20.9,39.7,32.5,62.5,32.5c22.8,0,45-11.5,62.5-32.5
				c16.3-19.5,26.1-45,26.1-68.2C247.7,83.7,201.9,65.3,159.1,65.3z"/>
		</g>
		<g id="XMLID_809_">
			<path id="XMLID_833_" class="st2" d="M237.6,188.5c-0.7,0-1.4,0-2.1-0.1l0.4-3.8c6,0.5,12-1.7,16.9-6.1c5.7-5.3,8.9-13.2,8.5-21
				c-0.2-3.2-0.9-7.4-3.7-8.9c-2.9-1.6-6.9,0.3-6.9,0.4l-1.8-3.4c0.2-0.1,5.9-2.9,10.7-0.3c3.4,1.9,5.3,5.9,5.6,12
				c0.5,9.1-3,17.8-9.7,24C250.3,185.9,244.1,188.5,237.6,188.5z"/>
		</g>
		<g id="XMLID_804_">
			<g id="XMLID_808_">
				<ellipse id="XMLID_1214_" class="st2" cx="125.3" cy="153.2" rx="6.6" ry="6.3"/>
			</g>
			<g id="XMLID_805_">
				<ellipse id="XMLID_1213_" class="st2" cx="192.9" cy="153.2" rx="6.6" ry="6.3"/>
			</g>
		</g>
		<g id="XMLID_800_">
			<g id="XMLID_802_">
				<path id="XMLID_1212_" class="st2" d="M131.8,194.2h54.5c0,0-4.4,22.5-27.2,22.6C137.1,216.9,131.8,194.2,131.8,194.2z"/>
			</g>
			<g id="XMLID_801_">
				<path id="XMLID_1211_" class="st5" d="M141.2,210.1c0,0,6.7-7.6,19.9-6.8c13.2,0.7,17.2,5.8,17.2,5.8s-4.1,8.5-17.5,7.7
					C147.4,215.9,141.2,210.1,141.2,210.1z"/>
			</g>
		</g>
		<g id="XMLID_796_">
			<path id="XMLID_829_" class="st2" d="M158.9,218.7c-23.2,0-29-23.8-29-24.1c-0.1-0.6,0-1.2,0.4-1.6c0.4-0.4,0.9-0.7,1.5-0.7h54.5
				c0.6,0,1.1,0.3,1.5,0.7c0.4,0.4,0.5,1,0.4,1.6c0,0.2-5,24-29.2,24.1C159,218.7,159,218.7,158.9,218.7z M134.5,196.1
				c1.9,5.5,8.3,18.9,24.6,18.8c17-0.1,23-13.3,24.7-18.8H134.5z"/>
		</g>
		<g id="XMLID_794_">
			<ellipse id="XMLID_1210_" class="st5" cx="159.1" cy="172.5" rx="3" ry="2.9"/>
		</g>
		<g id="XMLID_649_">
			<g id="XMLID_711_">
				<path id="XMLID_1209_" class="st6" d="M62.3,111.3V81.3c0-26.4,23.7-47,50.9-44c1,0.1,1.6,0.2,1.6,0.2c5.2-13.9,34.8-38,82-26.2
					c0.8,0.2,1.7,0.4,2.5,0.7c35.3,9.8,59.2,41.6,59.2,77v58c-10.8,1.3-13.6,18.1-13.6,18.1l0-0.5c0.2-14.3-11-26.4-25.7-27.7
					c-28.9-2.5-74-13.6-93-56.7c0,0-37.5,10.9-47.5,35.8s-6.4,45.8-6.4,45.8s-4.2,19.6,3,32.6c7.2,12.9,10.4,36.4-13,45.2
					c0,0,11.9-10.9,0-36.3s-14.6-44.7-7.3-60.9C62.3,126.2,62.3,111.3,62.3,111.3z"/>
			</g>
		</g>
		<g id="XMLID_768_">
			<g id="XMLID_676_">
				<path id="XMLID_806_" class="st2" d="M62.3,241.4c-0.7,0-1.3-0.3-1.7-0.9c-0.5-0.8-0.4-1.8,0.3-2.4c0.4-0.4,10.7-10.4-0.4-34.1
					c-12.4-26.3-14.7-46.2-7.3-62.4c7.1-15.6,7.2-30.1,7.2-30.2V81.3c0-13.2,5.9-25.8,16.1-34.6c10.1-8.7,23.6-12.8,37-11.3
					c0,0,0.1,0,0.1,0c7.1-15.4,37.4-37.5,83.8-26c0.9,0.2,1.7,0.4,2.6,0.7c35.7,9.9,60.6,42.3,60.6,78.8v58c0,1-0.7,1.8-1.7,1.9
					c-9.2,1.1-11.8,16.4-11.8,16.5c-0.2,1-1.1,1.7-2.1,1.6c-1-0.1-1.8-0.9-1.8-1.9c0.2-13.5-10.5-24.9-24.4-26.1
					c-26.8-2.2-74.3-12.4-93.5-56.4c-7.3,2.5-36.2,13.3-44.6,34.1c-9.7,24.1-6.4,44.6-6.3,44.8c0,0.2,0,0.5,0,0.7
					c0,0.2-3.9,19.1,2.8,31.3c4.5,8,7.8,20.5,3.6,31.4c-2.9,7.6-8.8,13.1-17.7,16.4C62.8,241.3,62.5,241.4,62.3,241.4z M108,38.9
					c-10.6,0-21,3.8-29,10.7c-9.4,8.1-14.7,19.6-14.7,31.7v30.1c0,0.6-0.1,15.5-7.5,31.8c-6.9,15.2-4.6,34,7.3,59.3
					c7.4,15.9,6,26.4,3.5,32.3c4.5-2.8,7.6-6.6,9.4-11.3c3.7-9.7,0.5-21.4-3.4-28.3c-7-12.6-3.9-30.7-3.3-33.5
					c-0.4-3-2.9-22.8,6.6-46.4c10.3-25.5,47.2-36.5,48.8-36.9c1-0.3,2,0.2,2.4,1.1c17,41.4,58.8,53.1,90.8,55.7
					c12.8,1,23.2,9.7,26.7,21c2-4.5,5.4-9.4,10.9-10.8V88.9c0-34.8-23.8-65.7-57.8-75.2c-0.8-0.2-1.6-0.4-2.4-0.6
					c-44.8-11.1-74.5,11.2-79.7,25c-0.3,0.9-1.3,1.4-2.2,1.2c0,0-0.6-0.1-1.5-0.2C111.3,39,109.6,38.9,108,38.9z"/>
			</g>
		</g>
	</g>
</g>
</svg>
