<?xml version="1.0" encoding="utf-8"?>
<!-- Generator: Adobe Illustrator 25.3.1, SVG Export Plug-In . SVG Version: 6.00 Build 0)  -->
<svg version="1.1" xmlns="http://www.w3.org/2000/svg" xmlns:xlink="http://www.w3.org/1999/xlink" x="0px" y="0px"
	 viewBox="0 0 300 300" style="enable-background:new 0 0 300 300;" xml:space="preserve">
<style type="text/css">
	.st0{display:none;}
	.st1{fill:#F9C68C;}
	.st2{fill:#713516;}
	.st3{fill:#85B440;}
	.st4{fill:#EF5353;}
	.st5{fill:#7B4732;}
</style>
<g id="Layer_1" class="st0">
</g>
<g id="Layer_2">
	<g id="XMLID_791_">
		<path id="XMLID_1265_" class="st1" d="M53.2,149c0,0-13.3-6.2-14.3,9.9C38,175.1,52.2,188.8,68,187.5"/>
	</g>
	<g id="XMLID_790_">
		<path id="XMLID_1180_" class="st2" d="M66,189.5c-6.8,0-13.5-2.5-18.9-7.1c-7-6-10.8-14.6-10.3-23.5c0.3-6,2.4-9.9,6-11.8
			c5.1-2.6,11.1,0.2,11.3,0.3l-1.9,3.3c0,0-4.3-1.9-7.4-0.3c-2.9,1.5-3.7,5.6-3.9,8.7c-0.4,7.7,2.9,15.4,9,20.6
			c5.1,4.4,11.5,6.5,17.9,6l0.4,3.7C67.5,189.4,66.7,189.5,66,189.5z"/>
	</g>
	<g id="XMLID_787_">
		<path id="XMLID_1165_" class="st3" d="M226.7,298.1h-155l0,0c0-27.4,24.9-49.7,55.6-49.7H171C201.8,248.5,226.7,270.7,226.7,298.1
			L226.7,298.1z"/>
	</g>
	<g id="XMLID_786_">
		<path id="XMLID_1176_" class="st2" d="M228.8,300H69.6v-1.9c0-28.4,25.9-51.5,57.7-51.5H171c31.8,0,57.7,23.1,57.7,51.5V300z
			 M73.9,296.3h150.7c-1.1-25.5-24.7-45.9-53.5-45.9h-43.7C98.5,250.3,75,270.8,73.9,296.3z"/>
	</g>
	<g id="XMLID_785_">
		<path id="XMLID_1264_" class="st1" d="M166.9,247.2v-21.4h-35.4v21.4C131.5,267.3,166.9,267.3,166.9,247.2z"/>
	</g>
	<g id="XMLID_784_">
		<path id="XMLID_1173_" class="st2" d="M149.2,264.1c-9.8,0-19.8-5.8-19.8-16.9v-23.3H169v23.3C169,258.3,159,264.1,149.2,264.1z
			 M133.6,227.7v19.6c0,9.1,8.1,13.2,15.6,13.2c7.5,0,15.6-4.1,15.6-13.2v-19.6H133.6z"/>
	</g>
	<g id="XMLID_783_">
		<path id="XMLID_1263_" class="st1" d="M245.3,149c0,0,13.3-6.2,14.3,9.9c0.9,16.1-13.3,29.9-29.1,28.6"/>
	</g>
	<g id="XMLID_782_">
		<path id="XMLID_1262_" class="st1" d="M245.3,137.4c0,47.3-43,100.6-96,100.6s-96-53.3-96-100.6s43-70.7,96-70.7
			S245.3,90.1,245.3,137.4z"/>
	</g>
	<g id="XMLID_781_">
		<path id="XMLID_1170_" class="st2" d="M149.2,239.8c-55.3,0-98.1-55.1-98.1-102.4c0-22.9,10-41.7,29-54.6
			c17.4-11.8,41.3-18,69.2-18s51.8,6.2,69.2,18c18.9,12.8,29,31.7,29,54.6C247.3,184.8,204.5,239.8,149.2,239.8z M149.2,68.6
			c-45.4,0-94,18.1-94,68.8c0,22.7,10.3,47.7,27.7,66.9c18.6,20.5,42.1,31.9,66.3,31.9c24.2,0,47.7-11.3,66.3-31.9
			c17.3-19.2,27.7-44.2,27.7-66.9C243.2,86.7,194.6,68.6,149.2,68.6z"/>
	</g>
	<g id="XMLID_780_">
		<path id="XMLID_1169_" class="st2" d="M232.5,189.5c-0.8,0-1.5,0-2.3-0.1l0.4-3.7c6.4,0.5,12.8-1.6,17.9-6
			c6.1-5.2,9.4-12.9,9-20.6c-0.2-3.2-1-7.2-3.9-8.7c-3.1-1.6-7.3,0.3-7.3,0.3l-1.9-3.3c0.3-0.1,6.3-2.9,11.3-0.3
			c3.6,1.9,5.6,5.8,6,11.8c0.5,8.9-3.2,17.5-10.3,23.5C245.9,187,239.3,189.5,232.5,189.5z"/>
	</g>
	<g id="XMLID_767_">
		<g id="XMLID_775_">
			<ellipse id="XMLID_1261_" class="st2" cx="113.4" cy="154.9" rx="7" ry="6.2"/>
		</g>
		<g id="XMLID_773_">
			<ellipse id="XMLID_1260_" class="st2" cx="185" cy="154.9" rx="7" ry="6.2"/>
		</g>
	</g>
	<g id="XMLID_764_">
		<g id="XMLID_766_">
			<path id="XMLID_1259_" class="st2" d="M120.3,195.1h57.7c0,0-4.7,22-28.9,22.1C125.9,217.3,120.3,195.1,120.3,195.1z"/>
		</g>
		<g id="XMLID_765_">
			<path id="XMLID_1258_" class="st4" d="M130.3,210.7c0,0,7.1-7.4,21.1-6.7c14,0.7,18.2,5.7,18.2,5.7s-4.4,8.3-18.6,7.5
				C136.8,216.4,130.3,210.7,130.3,210.7z"/>
		</g>
	</g>
	<g id="XMLID_763_">
		<path id="XMLID_1166_" class="st2" d="M149.1,219.1c-24.6,0-30.7-23.4-30.8-23.6c-0.1-0.6,0-1.1,0.4-1.6c0.4-0.4,1-0.7,1.6-0.7
			h57.7c0.6,0,1.2,0.2,1.6,0.7c0.4,0.4,0.6,1,0.4,1.5c-0.1,0.2-5.3,23.6-30.9,23.6C149.2,219.1,149.1,219.1,149.1,219.1z M123.1,197
			c2,5.4,8.7,18.4,26,18.4c0,0,0.1,0,0.1,0c17.8-0.1,24.3-13.1,26.2-18.4H123.1z"/>
	</g>
	<g id="XMLID_758_">
		<path id="XMLID_1257_" class="st4" d="M152.4,173.8c0,1.6-1.4,2.9-3.2,2.9c-1.8,0-3.2-1.3-3.2-2.9c0-1.6,1.4-2.9,3.2-2.9
			C151,171,152.4,172.2,152.4,173.8z"/>
	</g>
	<g id="XMLID_615_">
		<path id="XMLID_1138_" class="st5" d="M259.1,116.7c5.3-4.1,8.7-10.2,8.7-17c0-9.6-6.8-17.8-16.2-21c2.5-3.5,3.9-7.6,3.9-12
			c0-12.4-11.3-22.4-25.1-22.4c-0.8,0-1.5,0-2.3,0.1C226,29.8,212,18.5,195,18.5c-5.1,0-9.9,1-14.2,2.8
			c-5.9-8.5-16.4-14.1-28.4-14.1c-13.1,0-24.5,6.8-29.9,16.6c-5.4-3.4-12-5.4-19.1-5.4c-17,0-31,11.3-33.1,25.9
			c-0.8-0.1-1.5-0.1-2.3-0.1c-13.9,0-25.1,10-25.1,22.4c0,4.4,1.4,8.5,3.9,12c-9.5,3.2-16.2,11.4-16.2,21c0,6.8,3.4,12.9,8.7,17
			c-6.7,2.3-11.5,8.2-11.5,15c0,8.9,8.1,16.1,18.1,16.1c3.9-0.2,16.3,28.5,16.3,28.5v-35.9c-0.1-14,9.6-18.8,16.3-21.1
			c0.2-7.8,7.3-14,16-14c4.1,0,7.9,1.4,10.8,3.7c3.3,2.7,8,3.6,12.1,2c2.6-1,5.4-1.5,8.4-1.5c3.6,0,7,0.8,10,2.2
			c3.5,1.6,7.5,1.6,11,0c3-1.4,6.4-2.2,10-2.2c6.9,0,13,2.9,16.9,7.4c0.8,0.9,2,1.4,3.3,1.4l0.2,0c1.5,0,2.8-0.7,3.6-1.9
			c3-4.2,8.2-7,14.1-7c6.9,0,12.7,3.7,15.3,9l2.3,0c22.6,0.6,24.9,15.1,25.2,22.1c0,0.1,0,32.6,0,32.6c4.6-9.6,16-25,16-25v-0.5
			c9.5-0.5,17.1-7.5,17.1-16.1C270.7,124.8,265.9,119,259.1,116.7z"/>
	</g>
	<g id="XMLID_618_">
		<path id="XMLID_1140_" class="st2" d="M62.2,178.2c-0.8,0-1.6-0.5-1.9-1.2c-5.2-12-12.1-25.6-14.6-27.4c-11-0.1-19.9-8.2-19.9-18
			c0-6.5,3.8-12.4,10-15.5c-4.6-4.5-7.2-10.3-7.2-16.5c0-9.3,6.1-17.8,15.4-21.9c-2-3.4-3-7.2-3-11.1C40.8,53.3,53,42.4,68,42.4
			c0.2,0,0.3,0,0.5,0c3.1-14.9,17.7-25.8,34.8-25.8c6.5,0,12.8,1.6,18.3,4.5c6.3-9.8,17.9-15.8,30.7-15.8c11.7,0,22.5,5.1,29.1,13.6
			c4.3-1.6,8.8-2.4,13.5-2.4c17.1,0,31.8,11,34.8,25.8c0.2,0,0.4,0,0.5,0c15,0,27.2,10.9,27.2,24.3c0,3.9-1,7.7-3,11.1
			c9.3,4,15.4,12.6,15.4,21.9c0,6.1-2.6,12-7.2,16.5c6.2,3.2,10,9,10,15.5c0,9.1-7.6,16.7-17.6,17.8c-1.4,1.9-11.5,15.8-15.7,24.5
			c-0.4,0.8-1.4,1.3-2.3,1.1c-1-0.2-1.7-0.9-1.7-1.8c0-0.3,0-32.2,0-32.6c-0.7-13.2-8.3-19.9-23.2-20.3l-2.2,0
			c-0.8,0-1.6-0.4-1.9-1.1c-2.3-4.8-7.6-7.9-13.4-7.9c-5,0-9.6,2.3-12.3,6.1c-1.2,1.7-3.2,2.7-5.4,2.7c0,0,0,0,0,0l-0.2,0
			c-1.9,0-3.7-0.8-4.9-2.2c-3.7-4.2-9.2-6.7-15.2-6.7c-3.2,0-6.2,0.7-9,2c-4.1,1.9-8.9,1.9-13,0c-2.8-1.3-5.8-2-9-2
			c-2.6,0-5.2,0.5-7.6,1.4c-4.7,1.8-10.3,0.9-14.3-2.3c-2.6-2.1-5.9-3.2-9.4-3.2c-7.5,0-13.8,5.5-13.9,12.2c0,0.8-0.5,1.4-1.3,1.7
			c-6.4,2.2-15,6.6-14.9,19.3v35.9c0,0.9-0.7,1.7-1.7,1.8C62.4,178.2,62.3,178.2,62.2,178.2z M46,146c1.5,0,4.9,1.2,14.1,20.7v-26.2
			C60,125.1,71.2,120,76.5,118.1c0.9-8.1,8.7-14.6,18-14.6c4.5,0,8.8,1.5,12.2,4.2c2.8,2.2,6.6,2.9,9.8,1.7c2.9-1.1,6-1.7,9.2-1.7
			c3.8,0,7.6,0.8,10.9,2.4c2.9,1.4,6.2,1.4,9.1,0c3.3-1.6,7.1-2.4,10.9-2.4c7.3,0,14,2.9,18.5,8.1c0.4,0.5,1,0.7,1.6,0.7l0.2,0
			c0,0,0,0,0,0c0.7,0,1.4-0.4,1.9-1c3.5-4.9,9.4-7.8,15.9-7.8c7,0,13.4,3.5,16.6,9l0.9,0c12,0.3,26.4,4.7,27.3,23.9
			c0,0.2,0,14,0,24.7c4.6-7.6,10.4-15.6,11.8-17.6c0-1,0.9-1.7,2-1.8c8.5-0.4,15.1-6.7,15.1-14.2c0-5.9-4-11.1-10.2-13.3
			c-0.7-0.2-1.2-0.8-1.3-1.4c-0.1-0.6,0.1-1.3,0.7-1.7c5.1-3.9,8-9.6,8-15.6c0-8.5-6-16.2-14.9-19.2c-0.6-0.2-1-0.6-1.2-1.2
			c-0.2-0.5-0.1-1.1,0.2-1.6c2.3-3.3,3.6-7.1,3.6-11c0-11.3-10.3-20.6-23.1-20.6c-0.6,0-1.3,0-2.1,0.1c-1.1,0.1-2.1-0.6-2.3-1.6
			c-2-13.9-15.3-24.3-31-24.3c-4.7,0-9.2,0.9-13.3,2.7c-1,0.4-2.1,0.1-2.7-0.7c-5.8-8.3-15.7-13.2-26.6-13.2c-12,0-22.7,6-28.1,15.6
			c-0.3,0.5-0.8,0.8-1.4,1c-0.6,0.1-1.2,0-1.7-0.3c-5.3-3.3-11.5-5-17.9-5c-15.7,0-29,10.5-31,24.3c-0.1,1-1.2,1.7-2.3,1.6
			c-0.8-0.1-1.5-0.1-2.1-0.1C55.3,46.2,45,55.4,45,66.7c0,3.9,1.2,7.7,3.6,11c0.3,0.5,0.4,1.1,0.2,1.6c-0.2,0.5-0.7,1-1.2,1.2
			c-8.9,3-14.9,10.7-14.9,19.2c0,6,2.9,11.7,8,15.6c0.6,0.4,0.8,1.1,0.7,1.7c-0.1,0.6-0.6,1.2-1.3,1.4c-6.2,2.2-10.2,7.4-10.2,13.3
			c0,7.9,7.1,14.2,15.9,14.3C45.9,146,45.9,146,46,146z"/>
	</g>
</g>
</svg>
