<?xml version="1.0" encoding="utf-8"?>
<!-- Generator: Adobe Illustrator 25.3.1, SVG Export Plug-In . SVG Version: 6.00 Build 0)  -->
<svg version="1.1" xmlns="http://www.w3.org/2000/svg" xmlns:xlink="http://www.w3.org/1999/xlink" x="0px" y="0px"
	 viewBox="0 0 300 300" style="enable-background:new 0 0 300 300;" xml:space="preserve">
<style type="text/css">
	.st0{display:none;}
	.st1{fill:#F9C68C;}
	.st2{fill:#713516;}
	.st3{fill:#DC4647;}
	.st4{fill:#7B4732;}
	.st5{fill:#EF5353;}
</style>
<g id="Layer_1" class="st0">
</g>
<g id="Layer_2">
	<g id="XMLID_734_">
		<g id="XMLID_690_">
			<path id="XMLID_1275_" class="st1" d="M63.8,141c0,0-12.8-6.6-13.7,10.5s12.7,31.6,27.9,30.2"/>
		</g>
		<g id="XMLID_697_">
			<path id="XMLID_1198_" class="st2" d="M76,183.8c-6.5,0-12.9-2.6-18.1-7.5c-6.7-6.4-10.3-15.4-9.8-24.8
				c0.3-6.3,2.3-10.5,5.7-12.4c4.9-2.7,10.6,0.2,10.9,0.3l-1.8,3.5c0,0-4.1-2-7-0.4c-2.8,1.6-3.5,5.9-3.7,9.2
				c-0.4,8.1,2.8,16.3,8.6,21.8c4.9,4.6,11,6.9,17.1,6.4l0.4,3.9C77.4,183.7,76.7,183.8,76,183.8z"/>
		</g>
		<g id="XMLID_693_">
			<path id="XMLID_1179_" class="st3" d="M229.9,298.6H81.5l0,0c0-29,23.9-52.5,53.3-52.5h41.8C206.1,246.1,229.9,269.6,229.9,298.6
				L229.9,298.6z"/>
		</g>
		<g id="XMLID_659_">
			<path id="XMLID_1194_" class="st2" d="M231.9,300.6H79.5v-2c0-30,24.8-54.4,55.3-54.4h41.8c30.5,0,55.3,24.4,55.3,54.4V300.6z
				 M83.6,296.6h144.3c-1.1-26.9-23.6-48.5-51.2-48.5h-41.8C107.2,248.1,84.6,269.7,83.6,296.6z"/>
		</g>
		<g id="XMLID_658_">
			<path id="XMLID_1274_" class="st1" d="M172.7,244.8v-22.7h-33.9v22.7C138.8,266,172.7,266,172.7,244.8z"/>
		</g>
		<g id="XMLID_692_">
			<path id="XMLID_1191_" class="st2" d="M155.7,262.7c-9.4,0-18.9-6.1-18.9-17.9v-24.6h37.9v24.6
				C174.7,256.5,165.1,262.7,155.7,262.7z M140.8,224.1v20.7c0,9.6,7.7,13.9,14.9,13.9c7.2,0,14.9-4.4,14.9-13.9v-20.7H140.8z"/>
		</g>
		<g id="XMLID_689_">
			<path id="XMLID_1273_" class="st1" d="M247.7,141c0,0,12.8-6.6,13.7,10.5s-12.7,31.6-27.9,30.2"/>
		</g>
		<g id="XMLID_662_">
			<path id="XMLID_1272_" class="st1" d="M247.7,128.8c0,50-41.2,106.3-92,106.3c-50.8,0-92-56.3-92-106.3s41.2-74.7,92-74.7
				C206.5,54.1,247.7,78.8,247.7,128.8z"/>
		</g>
		<g id="XMLID_642_">
			<path id="XMLID_1188_" class="st2" d="M155.7,237c-52.9,0-94-58.2-94-108.2c0-24.2,9.6-44.1,27.7-57.6c16.6-12.4,39.6-19,66.2-19
				c26.7,0,49.6,6.6,66.2,19c18.1,13.5,27.7,33.5,27.7,57.6C249.7,178.8,208.6,237,155.7,237z M155.7,56.1c-43.5,0-90,19.1-90,72.7
				c0,24,9.9,50.4,26.5,70.6c17.8,21.7,40.3,33.7,63.5,33.7c23.2,0,45.7-12,63.5-33.7c16.6-20.3,26.5-46.7,26.5-70.6
				C245.7,75.2,199.2,56.1,155.7,56.1z"/>
		</g>
		<g id="XMLID_660_">
			<path id="XMLID_1187_" class="st2" d="M235.4,183.8c-0.7,0-1.4,0-2.2-0.1l0.4-3.9c6.1,0.5,12.2-1.7,17.1-6.4
				c5.8-5.5,9-13.6,8.6-21.8c-0.2-3.3-1-7.7-3.7-9.2c-2.9-1.7-7,0.3-7,0.4l-1.8-3.5c0.2-0.1,6-3,10.9-0.3c3.5,2,5.4,6.1,5.7,12.4
				c0.5,9.4-3.1,18.4-9.8,24.8C248.3,181.1,242,183.8,235.4,183.8z"/>
		</g>
		<g id="XMLID_695_">
			<path id="XMLID_1271_" class="st4" d="M223.5,27.7l12.8-19.9l-33.8,10.1l0,0c-6.5-1.9-13.4-2.9-20.6-2.9h-51.5
				c-40.7,0-73.7,32.5-73.7,72.6v52.1c7.9,8.7,15.6,30.2,15.6,30.2v-39.1c0-12.5,10.3-22.6,23-22.6h60.9l16.9-30.5l7.3,31.2h37
				c12.7,0,23,10.1,23,22.6v35.2l15.3-26.5V87.7C255.7,62.8,242.9,40.8,223.5,27.7z"/>
		</g>
		<g id="XMLID_698_">
			<path id="XMLID_1184_" class="st2" d="M72.4,171.9c-0.8,0-1.6-0.5-1.9-1.3c-5-12.7-11.7-27.2-14.1-28.9c-0.4-0.1-0.8-0.2-1.1-0.5
				c-0.4-0.4-0.6-0.9-0.6-1.4V87.7c0-41.1,34-74.6,75.7-74.6H182c6.9,0,13.8,0.9,20.5,2.8L235.8,6c0.8-0.2,1.7,0,2.2,0.7
				c0.5,0.7,0.5,1.5,0.1,2.2l-11.8,18.3c19.7,14,31.4,36.5,31.4,60.5v52.6c0,0.4-0.1,0.8-0.3,1.1c-0.1,0.2-10.9,16.3-15.1,26.1
				c-0.4,0.9-1.3,1.3-2.2,1.2c-0.9-0.2-1.6-1-1.6-1.9v-34c0-12.1-10-21.9-22.2-21.9h-35.7c-0.9,0-1.7-0.6-1.9-1.5l-6.1-26.2
				l-14.4,26c-0.3,0.6-1,1-1.8,1H96.6c-12.2,0-22.2,9.8-22.2,21.9v37.9c0,0.9-0.7,1.8-1.6,1.9C72.6,171.9,72.5,171.9,72.4,171.9z
				 M58.7,138.6c2,1.6,5.5,6.5,11.6,21.1V132c0-14.2,11.8-25.8,26.2-25.8H155l16.3-29.5c0.4-0.7,1.2-1.1,2-1
				c0.8,0.1,1.5,0.7,1.7,1.5l7,29.7h34.2c14.4,0,26.2,11.6,26.2,25.8v25.5c4.4-8,9.9-16.4,11.3-18.6v-52c0-23.3-11.7-45.1-31.3-58.3
				c-0.9-0.6-1.1-1.8-0.6-2.7l9.9-15.4l-28.4,8.5c-0.4,0.2-0.9,0.3-1.4,0.1c-6.5-1.9-13.3-2.8-20-2.8h-51.5
				c-39.5,0-71.7,31.7-71.7,70.6V138.6z"/>
		</g>
		<g id="XMLID_691_">
			<g id="XMLID_661_">
				<ellipse id="XMLID_1270_" class="st2" cx="121.4" cy="147.2" rx="6.7" ry="6.6"/>
			</g>
			<g id="XMLID_694_">
				<ellipse id="XMLID_1269_" class="st2" cx="190" cy="147.2" rx="6.7" ry="6.6"/>
			</g>
		</g>
		<g id="XMLID_729_">
			<g id="XMLID_731_">
				<path id="XMLID_1268_" class="st2" d="M128.1,189.8h55.3c0,0-4.5,23.3-27.6,23.4C133.4,213.2,128.1,189.8,128.1,189.8z"/>
			</g>
			<g id="XMLID_730_">
				<path id="XMLID_1267_" class="st5" d="M137.6,206.2c0,0,6.8-7.8,20.2-7.1c13.4,0.7,17.4,6.1,17.4,6.1s-4.2,8.8-17.8,8
					C143.8,212.2,137.6,206.2,137.6,206.2z"/>
			</g>
		</g>
		<g id="XMLID_732_">
			<path id="XMLID_1181_" class="st2" d="M155.6,215.1c-23.6,0-29.4-24.7-29.5-24.9c-0.1-0.6,0-1.2,0.4-1.7c0.4-0.5,1-0.7,1.6-0.7
				h55.3c0.6,0,1.2,0.3,1.5,0.7c0.4,0.5,0.5,1,0.4,1.6c0,0.2-5.1,24.9-29.6,25C155.7,215.1,155.6,215.1,155.6,215.1z M130.7,191.7
				c2,5.7,8.4,19.5,24.9,19.5c0,0,0.1,0,0.1,0c17-0.1,23.2-13.8,25-19.5H130.7z"/>
		</g>
		<g id="XMLID_733_">
			<path id="XMLID_1266_" class="st5" d="M158.8,167.2c0,1.7-1.4,3-3.1,3c-1.7,0-3.1-1.4-3.1-3c0-1.7,1.4-3,3.1-3
				C157.4,164.2,158.8,165.6,158.8,167.2z"/>
		</g>
	</g>
</g>
</svg>
